<svg width="191" height="121" viewBox="0 0 191 121" fill="none" xmlns="http://www.w3.org/2000/svg">
<path d="M64.9583 0H139.516H150.453C162.792 0 172.795 10.0033 172.795 22.3429V22.3429V44.446C172.795 46.0208 171.519 47.2974 169.944 47.2974V47.2974C168.935 47.2974 168.001 46.7639 167.488 45.8947L158.503 30.6611C155.462 25.5064 149.923 22.3429 143.939 22.3429H55.6978C49.4963 22.3429 43.7132 25.4709 40.3189 30.6611L30.1769 46.1693C29.7166 46.8732 28.9323 47.2974 28.0913 47.2974V47.2974C26.715 47.2974 25.5993 46.1816 25.5993 44.8053V22.3429V22.3429C25.5993 10.0033 35.6026 0 47.9422 0H64.9583Z" fill="#C4C4C4"/>
<path d="M54.5508 15.0712L57.1787 10.8524H58.1446V16.3069H57.3065V12.0882L54.6929 16.3069H53.7128V10.8524H54.5508V15.0712ZM63.3301 13.1962V13.9774H60.3188V13.1962H63.3301ZM60.5176 10.8524V16.3069H59.6796V10.8524H60.5176ZM63.9693 10.8524V16.3069H63.1313V10.8524H63.9693ZM64.7577 11.6337V10.8524H69.1895V11.6337H67.3997V16.3069H66.5617V11.6337H64.7577ZM72.4157 16.4206C71.8902 16.4206 71.4368 16.3046 71.0556 16.0726C70.6768 15.8382 70.3845 15.5115 70.1785 15.0925C69.9749 14.6711 69.8731 14.181 69.8731 13.6223C69.8731 13.0636 69.9749 12.5712 70.1785 12.145C70.3845 11.7165 70.6709 11.3827 71.0379 11.1436C71.4072 10.9021 71.8381 10.7814 72.3305 10.7814C72.6146 10.7814 72.8951 10.8287 73.1721 10.9234C73.4491 11.0181 73.7012 11.172 73.9285 11.3851C74.1558 11.5958 74.3369 11.8751 74.4718 12.2231C74.6068 12.5712 74.6742 12.9997 74.6742 13.5087V13.8638H70.4697V13.1393H73.822C73.822 12.8316 73.7604 12.5569 73.6373 12.3155C73.5166 12.074 73.3438 11.8834 73.1188 11.7437C72.8963 11.6041 72.6335 11.5342 72.3305 11.5342C71.9967 11.5342 71.7079 11.6171 71.464 11.7828C71.2225 11.9462 71.0367 12.1592 70.9065 12.422C70.7763 12.6848 70.7112 12.9665 70.7112 13.2672V13.7501C70.7112 14.1621 70.7822 14.5113 70.9242 14.7977C71.0687 15.0818 71.2687 15.2984 71.5244 15.4476C71.7801 15.5944 72.0772 15.6677 72.4157 15.6677C72.6359 15.6677 72.8348 15.637 73.0123 15.5754C73.1922 15.5115 73.3473 15.4168 73.4775 15.2913C73.6077 15.1635 73.7083 15.0049 73.7794 14.8155L74.589 15.0427C74.5038 15.3174 74.3606 15.5588 74.1593 15.7672C73.9581 15.9731 73.7095 16.1341 73.4136 16.2501C73.1177 16.3638 72.785 16.4206 72.4157 16.4206ZM75.9491 18.3524V10.8524H76.7588V11.7189H76.8582C76.9197 11.6242 77.005 11.5034 77.1139 11.3567C77.2251 11.2075 77.3838 11.0749 77.5897 10.9589C77.7981 10.8406 78.0798 10.7814 78.4349 10.7814C78.8942 10.7814 79.299 10.8962 79.6494 11.1258C79.9998 11.3555 80.2732 11.681 80.4697 12.1024C80.6662 12.5238 80.7644 13.021 80.7644 13.5939C80.7644 14.1715 80.6662 14.6722 80.4697 15.096C80.2732 15.5174 80.0009 15.8441 79.6529 16.0761C79.3049 16.3058 78.9036 16.4206 78.4491 16.4206C78.0987 16.4206 77.8182 16.3626 77.6075 16.2466C77.3968 16.1282 77.2346 15.9944 77.121 15.8453C77.0073 15.6938 76.9197 15.5683 76.8582 15.4689H76.7872V18.3524H75.9491ZM76.773 13.5797C76.773 13.9916 76.8333 14.355 76.9541 14.6699C77.0748 14.9824 77.2512 15.2274 77.4832 15.405C77.7152 15.5801 77.9993 15.6677 78.3355 15.6677C78.6858 15.6677 78.9782 15.5754 79.2126 15.3908C79.4493 15.2037 79.6269 14.9528 79.7453 14.6379C79.866 14.3207 79.9264 13.9679 79.9264 13.5797C79.9264 13.1962 79.8672 12.8505 79.7488 12.5427C79.6328 12.2326 79.4564 11.9876 79.2197 11.8077C78.9853 11.6254 78.6906 11.5342 78.3355 11.5342C77.9946 11.5342 77.7081 11.6206 77.4761 11.7935C77.2441 11.9639 77.0689 12.203 76.9505 12.5108C76.8322 12.8162 76.773 13.1725 76.773 13.5797ZM85.6934 13.1962V13.9774H82.6821V13.1962H85.6934ZM82.8809 10.8524V16.3069H82.0429V10.8524H82.8809ZM86.3326 10.8524V16.3069H85.4946V10.8524H86.3326ZM90.1501 16.4206C89.6245 16.4206 89.1712 16.3046 88.79 16.0726C88.4112 15.8382 88.1188 15.5115 87.9129 15.0925C87.7093 14.6711 87.6075 14.181 87.6075 13.6223C87.6075 13.0636 87.7093 12.5712 87.9129 12.145C88.1188 11.7165 88.4053 11.3827 88.7723 11.1436C89.1416 10.9021 89.5724 10.7814 90.0649 10.7814C90.349 10.7814 90.6295 10.8287 90.9065 10.9234C91.1835 11.0181 91.4356 11.172 91.6629 11.3851C91.8902 11.5958 92.0713 11.8751 92.2062 12.2231C92.3411 12.5712 92.4086 12.9997 92.4086 13.5087V13.8638H88.2041V13.1393H91.5563C91.5563 12.8316 91.4948 12.5569 91.3717 12.3155C91.2509 12.074 91.0781 11.8834 90.8532 11.7437C90.6307 11.6041 90.3679 11.5342 90.0649 11.5342C89.7311 11.5342 89.4422 11.6171 89.1984 11.7828C88.9569 11.9462 88.7711 12.1592 88.6409 12.422C88.5107 12.6848 88.4456 12.9665 88.4456 13.2672V13.7501C88.4456 14.1621 88.5166 14.5113 88.6586 14.7977C88.803 15.0818 89.0031 15.2984 89.2588 15.4476C89.5144 15.5944 89.8116 15.6677 90.1501 15.6677C90.3703 15.6677 90.5691 15.637 90.7467 15.5754C90.9266 15.5115 91.0817 15.4168 91.2119 15.2913C91.3421 15.1635 91.4427 15.0049 91.5137 14.8155L92.3234 15.0427C92.2382 15.3174 92.0949 15.5588 91.8937 15.7672C91.6925 15.9731 91.4439 16.1341 91.148 16.2501C90.852 16.3638 90.5194 16.4206 90.1501 16.4206ZM93.1757 11.6337V10.8524H97.6075V11.6337H95.8177V16.3069H94.9796V11.6337H93.1757ZM101.672 12.7984V13.5797H98.4899V12.7984H101.672ZM106.129 15.1706L108.033 10.8524H108.828L106.47 16.3069H105.788L103.473 10.8524H104.254L106.129 15.1706ZM103.984 10.8524V16.3069H103.146V10.8524H103.984ZM108.274 16.3069V10.8524H109.112V16.3069H108.274ZM112.251 16.4348C111.906 16.4348 111.592 16.3697 111.31 16.2395C111.029 16.1069 110.805 15.9163 110.639 15.6677C110.474 15.4168 110.391 15.1138 110.391 14.7587C110.391 14.4462 110.452 14.1928 110.575 13.9987C110.698 13.8022 110.863 13.6483 111.069 13.5371C111.275 13.4258 111.502 13.3429 111.751 13.2885C112.002 13.2317 112.254 13.1867 112.507 13.1535C112.839 13.1109 113.107 13.079 113.313 13.0577C113.522 13.034 113.673 12.9949 113.768 12.9405C113.865 12.886 113.913 12.7913 113.913 12.6564V12.628C113.913 12.2776 113.818 12.0053 113.626 11.8112C113.436 11.6171 113.149 11.52 112.763 11.52C112.363 11.52 112.049 11.6076 111.822 11.7828C111.595 11.958 111.435 12.145 111.342 12.3439L110.547 12.0598C110.689 11.7283 110.878 11.4703 111.115 11.2856C111.354 11.0986 111.615 10.9684 111.896 10.895C112.18 10.8193 112.46 10.7814 112.734 10.7814C112.91 10.7814 113.111 10.8027 113.338 10.8453C113.568 10.8855 113.789 10.9696 114.002 11.0974C114.218 11.2253 114.396 11.4182 114.538 11.6763C114.68 11.9343 114.751 12.28 114.751 12.7132V16.3069H113.913V15.5683H113.871C113.814 15.6867 113.719 15.8133 113.587 15.9483C113.454 16.0832 113.278 16.198 113.058 16.2927C112.837 16.3874 112.569 16.4348 112.251 16.4348ZM112.379 15.6819C112.711 15.6819 112.99 15.6168 113.217 15.4866C113.447 15.3564 113.62 15.1883 113.736 14.9824C113.854 14.7764 113.913 14.5598 113.913 14.3325V13.5655C113.878 13.6081 113.8 13.6471 113.679 13.6827C113.561 13.7158 113.423 13.7454 113.267 13.7714C113.113 13.7951 112.963 13.8164 112.816 13.8354C112.672 13.8519 112.555 13.8661 112.465 13.878C112.247 13.9064 112.043 13.9525 111.854 14.0165C111.667 14.078 111.515 14.1715 111.399 14.297C111.286 14.4201 111.229 14.5882 111.229 14.8013C111.229 15.0925 111.336 15.3126 111.552 15.4618C111.77 15.6086 112.046 15.6819 112.379 15.6819ZM119.648 10.8524V11.6337H117.119V16.3069H116.281V10.8524H119.648ZM122.193 16.4348C121.847 16.4348 121.534 16.3697 121.252 16.2395C120.97 16.1069 120.746 15.9163 120.581 15.6677C120.415 15.4168 120.332 15.1138 120.332 14.7587C120.332 14.4462 120.394 14.1928 120.517 13.9987C120.64 13.8022 120.804 13.6483 121.01 13.5371C121.216 13.4258 121.444 13.3429 121.692 13.2885C121.943 13.2317 122.195 13.1867 122.449 13.1535C122.78 13.1109 123.049 13.079 123.255 13.0577C123.463 13.034 123.615 12.9949 123.709 12.9405C123.806 12.886 123.855 12.7913 123.855 12.6564V12.628C123.855 12.2776 123.759 12.0053 123.567 11.8112C123.378 11.6171 123.09 11.52 122.704 11.52C122.304 11.52 121.99 11.6076 121.763 11.7828C121.536 11.958 121.376 12.145 121.284 12.3439L120.488 12.0598C120.63 11.7283 120.82 11.4703 121.057 11.2856C121.296 11.0986 121.556 10.9684 121.838 10.895C122.122 10.8193 122.401 10.7814 122.676 10.7814C122.851 10.7814 123.052 10.8027 123.28 10.8453C123.509 10.8855 123.731 10.9696 123.944 11.0974C124.159 11.2253 124.338 11.4182 124.48 11.6763C124.622 11.9343 124.693 12.28 124.693 12.7132V16.3069H123.855V15.5683H123.812C123.755 15.6867 123.661 15.8133 123.528 15.9483C123.396 16.0832 123.219 16.198 122.999 16.2927C122.779 16.3874 122.51 16.4348 122.193 16.4348ZM122.321 15.6819C122.652 15.6819 122.932 15.6168 123.159 15.4866C123.388 15.3564 123.561 15.1883 123.677 14.9824C123.796 14.7764 123.855 14.5598 123.855 14.3325V13.5655C123.819 13.6081 123.741 13.6471 123.62 13.6827C123.502 13.7158 123.365 13.7454 123.209 13.7714C123.055 13.7951 122.904 13.8164 122.758 13.8354C122.613 13.8519 122.496 13.8661 122.406 13.878C122.188 13.9064 121.985 13.9525 121.795 14.0165C121.608 14.078 121.457 14.1715 121.341 14.297C121.227 14.4201 121.17 14.5882 121.17 14.8013C121.17 15.0925 121.278 15.3126 121.493 15.4618C121.711 15.6086 121.987 15.6819 122.321 15.6819ZM125.882 14.9149H126.777C126.795 15.1611 126.907 15.3481 127.11 15.476C127.316 15.6038 127.584 15.6677 127.913 15.6677C128.249 15.6677 128.537 15.5991 128.776 15.4618C129.015 15.3221 129.134 15.0972 129.134 14.7871C129.134 14.6048 129.089 14.4462 129 14.3112C128.91 14.1739 128.783 14.0674 128.62 13.9916C128.456 13.9158 128.263 13.878 128.041 13.878H127.103V13.1251H128.041C128.375 13.1251 128.621 13.0494 128.779 12.8979C128.94 12.7463 129.021 12.5569 129.021 12.3297C129.021 12.0858 128.934 11.8905 128.762 11.7437C128.589 11.5946 128.344 11.52 128.027 11.52C127.707 11.52 127.441 11.5922 127.228 11.7366C127.014 11.8787 126.902 12.0622 126.89 12.2871H126.009C126.019 11.9935 126.109 11.7343 126.279 11.5094C126.45 11.2821 126.682 11.1045 126.975 10.9767C127.269 10.8465 127.605 10.7814 127.984 10.7814C128.367 10.7814 128.7 10.8488 128.982 10.9838C129.266 11.1164 129.485 11.2975 129.639 11.5271C129.795 11.7544 129.873 12.0124 129.873 12.3013C129.873 12.609 129.787 12.8576 129.614 13.047C129.441 13.2364 129.224 13.3713 128.964 13.4518V13.5087C129.17 13.5229 129.349 13.5891 129.5 13.7075C129.654 13.8235 129.774 13.9762 129.859 14.1656C129.944 14.3526 129.987 14.5598 129.987 14.7871C129.987 15.1185 129.898 15.4073 129.72 15.6535C129.543 15.8974 129.299 16.0868 128.989 16.2217C128.679 16.3543 128.325 16.4206 127.927 16.4206C127.541 16.4206 127.196 16.3578 126.89 16.2324C126.585 16.1045 126.342 15.9282 126.162 15.7033C125.985 15.476 125.891 15.2132 125.882 14.9149ZM132.002 15.0712L134.63 10.8524H135.596V16.3069H134.758V12.0882L132.144 16.3069H131.164V10.8524H132.002V15.0712ZM140.781 13.1962V13.9774H137.77V13.1962H140.781ZM137.969 10.8524V16.3069H137.131V10.8524H137.969ZM141.421 10.8524V16.3069H140.582V10.8524H141.421Z" fill="black"/>
<ellipse cx="26.253" cy="80.3891" rx="26.253" ry="39.0184" fill="#C4C4C4"/>
<ellipse cx="164.747" cy="81.1854" rx="26.253" ry="39.8146" fill="#C4C4C4"/>
<rect x="34.7531" y="53.454" width="121.494" height="59.046" rx="29.523" fill="#5A5A5A" stroke="black" stroke-width="17"/>
<path d="M129 71.1545C129 68.7162 127.023 66.7395 124.585 66.7395H117.877C111.735 66.7395 106.755 71.7192 106.755 77.862V85.8246V93.6953C106.755 99.8888 111.776 104.91 117.969 104.91H124.825C127.131 104.91 129 103.041 129 100.735V100.735H124.164C117.447 100.735 112.002 95.2899 112.002 88.5729V88.5729V82.6335V82.6335C112.178 76.4494 117.153 71.4796 123.338 71.3099L129 71.1545V71.1545Z" fill="white"/>
<path d="M99.7662 67.1456C98.0883 72.0547 96.301 76.8633 94.6007 81.764L87.3563 67.1456H83.0455C84.3499 71.256 88.5746 77.2893 90.0429 81.764L91.5622 86.6367L85.4289 104.91H90.9545L94.6007 91.1035L100.921 104.91H106.879L97.6393 86.6367L104.628 67.1456H99.7662Z" fill="white"/>
<path d="M63 72.253V66.7395H82.1114V72.253L77.7526 81.1594L75.0703 86.6728L71.7175 93.0345L68.3646 99.3962H83.1172V104.91H63V99.3962L69.3705 86.6728L72.7233 79.887L75.8196 72.253H63Z" fill="white"/>
</svg>
